<?xml version="1.0" encoding="utf-8"?>
<!-- Generator: Adobe Illustrator 19.0.1, SVG Export Plug-In . SVG Version: 6.00 Build 0)  -->
<svg version="1.1" id="Layer_1" xmlns="http://www.w3.org/2000/svg" xmlns:xlink="http://www.w3.org/1999/xlink" x="0px" y="0px"
	 viewBox="0 0 18 18" enable-background="new 0 0 18 18" xml:space="preserve">
<g>
	<g>
		<path fill="#FFFFFF" d="M8.999,10.801c0.993,0,1.802-0.807,1.802-1.802c0-0.391-0.127-0.754-0.34-1.05
			c-0.327-0.453-0.86-0.75-1.462-0.75c-0.6,0-1.133,0.295-1.46,0.75c-0.214,0.296-0.34,0.659-0.342,1.05
			C7.197,9.994,8.006,10.801,8.999,10.801"/>
	</g>
	<polygon fill="#FFFFFF" points="12.934,6.795 12.934,5.06 12.707,5.06 11.198,5.066 11.205,6.8 	"/>
	<g>
		<path fill="#FFFFFF" d="M14.118,7.949v4.192c0,1.091-0.887,1.977-1.979,1.977h-6.28c-1.09,0-1.977-0.886-1.977-1.977v-6.28
			c0-1.092,0.887-1.979,1.977-1.979h6.28c1.092,0,1.979,0.887,1.979,1.979V7.949z M8.999,0C4.038,0,0,4.038,0,8.999
			C0,13.963,4.038,18,8.999,18C13.962,18,18,13.963,18,8.999C18,4.038,13.962,0,8.999,0"/>
		<path fill="#FFFFFF" d="M11.799,8.999c0,1.543-1.255,2.8-2.8,2.8c-1.544,0-2.799-1.257-2.799-2.8c0-0.37,0.075-0.726,0.206-1.05
			H4.878v4.192c0,0.542,0.439,0.979,0.981,0.979h6.28c0.541,0,0.98-0.437,0.98-0.979V7.949h-1.527
			C11.723,8.273,11.799,8.629,11.799,8.999"/>
	</g>
</g>
</svg>
