<?xml version="1.0" encoding="utf-8"?>
<!-- Generator: Adobe Illustrator 19.0.1, SVG Export Plug-In . SVG Version: 6.00 Build 0)  -->
<svg version="1.1" id="Layer_1" xmlns="http://www.w3.org/2000/svg" xmlns:xlink="http://www.w3.org/1999/xlink" x="0px" y="0px"
	 viewBox="0 0 18 18" enable-background="new 0 0 18 18" xml:space="preserve">
<g>
	<path fill="#FFFFFF" d="M13.016,6.941c0.003,0.088,0.005,0.178,0.005,0.269c0,2.736-2.083,5.892-5.894,5.892
		c-1.17,0-2.259-0.341-3.176-0.931c0.163,0.02,0.327,0.03,0.494,0.03c0.971,0,1.864-0.331,2.573-0.887
		c-0.906-0.017-1.67-0.615-1.934-1.439C5.209,9.9,5.339,9.912,5.473,9.912c0.188,0,0.372-0.024,0.545-0.072
		C5.071,9.65,4.356,8.814,4.356,7.81c0-0.009,0-0.018,0.002-0.027c0.278,0.156,0.599,0.248,0.938,0.258
		C4.74,7.672,4.374,7.036,4.374,6.318c0-0.379,0.103-0.735,0.28-1.041C5.675,6.53,7.203,7.355,8.923,7.441
		C8.888,7.289,8.87,7.132,8.87,6.969c0-1.143,0.927-2.071,2.071-2.071c0.596,0,1.134,0.251,1.511,0.653
		c0.473-0.092,0.917-0.264,1.318-0.503c-0.156,0.485-0.484,0.891-0.912,1.147c0.42-0.049,0.82-0.161,1.189-0.325
		C13.771,6.284,13.419,6.648,13.016,6.941 M8.999,0C4.038,0,0,4.038,0,8.999C0,13.963,4.038,18,8.999,18
		C13.962,18,18,13.963,18,8.999C18,4.038,13.962,0,8.999,0"/>
</g>
</svg>
